<svg aria-hidden="true" style="position:absolute;width:0;height:0;overflow:hidden" xmlns="http://www.w3.org/2000/svg">
  <defs>
    <symbol id="icon-telegram" viewBox="0 0 32 32">
      <path d="M32 3 0 18l10 3L26 9 14 22v7l6-5 7 2 5-23z"/>
    </symbol>
    <symbol id="icon-Checkbox" viewBox="0 0 32 32">
      <path d="M34 1a4 4 0 0 1 6 3l-1 2-20 25a4 4 0 0 1-5 0L1 18a4 4 0 0 1 0-5 4 4 0 0 1 5 0l11 10L34 1z"/>
    </symbol>
    <symbol id="icon-email" viewBox="0 0 24 32">
      <path d="M20 8H4l-2 2v12l2 2h16l2-2V10l-2-2zm0 4-7 5h-2l-7-5 1-1 7 4 7-4a1 1 0 1 1 1 1z"/>
    </symbol>
    <symbol id="icon-phone" viewBox="0 0 24 32">
      <path d="M20 18h-3l-1 1-2 2-7-7 2-2 1-1V8L8 7H6L4 9c1 8 7 14 15 15l2-2v-2l-1-2z"/>
    </symbol>
    <symbol id="icon-person" viewBox="0 0 32 32">
      <path d="M16 16a5 5 0 1 0 0-11 5 5 0 0 0 0 11zm0 3c-4 0-11 1-11 5v1l2 2h18l2-2v-1c0-4-7-5-11-5z"/>
    </symbol>
    <symbol id="icon-close" viewBox="0 0 32 32">
      <path d="m32 3-3-3-13 13L3 0 0 3l13 13L0 29l3 3 13-13 13 13 3-3-13-13L32 3z"/>
    </symbol>
  </defs>
</svg>